<svg width="30" height="34" viewBox="0 0 30 34" fill="none" xmlns="http://www.w3.org/2000/svg">
<path d="M29 10.0294V32C29 32.5523 28.5523 33 28 33H2C1.44772 33 1 32.5523 1 32V2C1 1.44772 1.44772 1 2 1H19.8083C20.07 1 20.3213 1.10263 20.5083 1.28585L28.7 9.31522C28.8919 9.5033 29 9.76068 29 10.0294Z" fill="white" stroke="black" stroke-width="2"/>
<path d="M22.428 19.9326C22.4243 24.0291 19.0896 27.3631 14.998 27.3631H14.994H14.9936C13.7532 27.3641 12.5324 27.0532 11.4435 26.4591L11.2692 26.3641L11.0772 26.4144L7.71007 27.297L8.60337 24.0227L8.658 23.8224L8.55474 23.6423C7.90693 22.5126 7.56403 21.2374 7.564 19.9263C7.56789 15.8341 10.9033 12.5001 14.994 12.5001L14.9959 12.5001C15.9717 12.4964 16.9385 12.6871 17.8398 13.061C18.7412 13.4349 19.5591 13.9846 20.2457 14.6779L20.2457 14.6779L20.2483 14.6805C20.94 15.3687 21.488 16.1871 21.8623 17.0887C22.2366 17.9901 22.4288 18.9566 22.428 19.9326ZM22.428 19.9326L22.928 19.9331M22.428 19.9326L22.928 19.9331M22.928 19.9331C22.9289 18.8911 22.7237 17.8593 22.3241 16.897C21.9246 15.9347 21.3396 15.061 20.601 14.3261L7.55819 27.8537L11.204 26.8981C12.3665 27.5323 13.6698 27.8641 14.994 27.8631H14.998C19.366 27.8631 22.924 24.3051 22.928 19.9331ZM11.3807 26.0298L11.3808 26.0298L11.3212 25.9941L9.03083 26.5947L8.19308 26.8144L8.42174 25.979L9.03011 23.7566L8.99075 23.6933C8.99053 23.6929 8.9903 23.6925 8.99007 23.6922C8.28 22.5627 7.90447 21.2552 7.907 19.9211M11.3807 26.0298L8.407 19.9221M11.3807 26.0298L11.3834 26.0314C12.4766 26.6783 13.7233 27.0201 14.9936 27.0211H14.994C18.9012 27.0211 22.0815 23.8444 22.086 19.9299C22.0881 18.9985 21.9058 18.0759 21.5497 17.2152C21.1937 16.3548 20.671 15.5733 20.0117 14.9157M11.3807 26.0298L21.586 19.9291C21.5879 19.0635 21.4186 18.2062 21.0877 17.4064C20.7568 16.6066 20.2709 15.8802 19.658 15.2691M7.907 19.9211L8.407 19.9221M7.907 19.9211C7.907 19.9214 7.907 19.9217 7.907 19.9221H8.407M7.907 19.9211C7.90752 16.0193 11.0882 12.8383 14.9975 12.8381C15.9291 12.8364 16.8518 13.0192 17.7124 13.3758C18.5729 13.7324 19.3544 14.2557 20.0117 14.9157M8.407 19.9221C8.407 16.2961 11.364 13.3381 14.998 13.3381C15.8637 13.3365 16.7212 13.5063 17.521 13.8377C18.3208 14.1692 19.0471 14.6556 19.658 15.2691M20.0117 14.9157C20.0115 14.9154 20.0113 14.9152 20.011 14.915L19.658 15.2691M20.0117 14.9157C20.0119 14.9159 20.0121 14.916 20.0123 14.9162L19.658 15.2691M18.3845 22.0338L18.3854 22.0343C18.4285 22.0558 18.4697 22.0756 18.504 22.0921C18.5076 22.0939 18.5112 22.0956 18.5147 22.0973C18.5145 22.0999 18.5143 22.1026 18.5141 22.1053C18.5034 22.2303 18.4715 22.4027 18.4043 22.5934C18.3781 22.6643 18.258 22.8093 18.016 22.9645C17.7861 23.1119 17.5614 23.195 17.4633 23.2105C17.1596 23.2538 16.8163 23.2682 16.4434 23.1488L16.4427 23.1486C16.1595 23.0585 15.8085 22.9435 15.3619 22.7488L15.3604 22.7481C13.6396 22.0041 12.4638 20.3217 12.219 19.9715C12.2019 19.9471 12.1894 19.9292 12.1815 19.9185L12.1815 19.9184L12.1786 19.9146L12.1772 19.9126C12.13 19.8499 11.9504 19.6111 11.7822 19.2804C11.6086 18.9391 11.469 18.5421 11.469 18.1661C11.469 17.447 11.8023 17.0915 11.9908 16.8905C12.004 16.8764 12.0165 16.8631 12.0281 16.8504L12.0282 16.8505L12.0351 16.8427C12.056 16.819 12.0816 16.7998 12.1103 16.7864C12.1376 16.7737 12.1671 16.7664 12.1971 16.7651C12.3308 16.7651 12.4445 16.7654 12.5381 16.7711C12.5423 16.7803 12.5468 16.7907 12.5516 16.8023L12.5516 16.8023L12.5536 16.8072C12.623 16.9709 12.7329 17.2381 12.8418 17.5028C12.8618 17.5515 12.8818 17.6001 12.9015 17.648C13.0054 17.9004 13.1125 18.1606 13.1621 18.2701C13.1618 18.2708 13.1614 18.2715 13.1611 18.2722C13.114 18.3687 13.1062 18.3848 13.0671 18.4293L13.0655 18.4312C13.005 18.5009 12.9593 18.5569 12.9205 18.6044C12.8719 18.6639 12.8344 18.71 12.7925 18.7525C12.7905 18.7545 12.7881 18.7568 12.7855 18.7593C12.7414 18.8028 12.6189 18.9234 12.555 19.0938C12.4686 19.3239 12.5097 19.5561 12.6257 19.7575L12.6256 19.7576L12.6301 19.765C12.7521 19.9687 13.1791 20.6746 13.8292 21.2532C14.5295 21.8801 15.1679 22.1546 15.4287 22.2667C15.4732 22.2859 15.5068 22.3003 15.5277 22.3109L15.5277 22.3109L15.5322 22.3132C15.6639 22.3783 15.8483 22.4482 16.0594 22.4232C16.2908 22.3958 16.4531 22.2683 16.5609 22.1437C16.6589 22.0326 16.9606 21.6779 17.1425 21.4352C17.2514 21.4833 17.4667 21.5851 17.7095 21.7025C17.9987 21.8424 18.2888 21.9857 18.3845 22.0338Z" fill="black" stroke="black"/>
<path d="M20.6116 2.41421L27.1974 9H20.6116V2.41421Z" fill="white" stroke="black" stroke-width="2"/>
</svg>
