<svg width="31" height="34" viewBox="0 0 31 34" fill="none" xmlns="http://www.w3.org/2000/svg">
<path d="M29.75 10.8695V30C29.75 31.7949 28.2949 33.25 26.5 33.25H4.5C2.70507 33.25 1.25 31.7949 1.25 30V4C1.25 2.20507 2.70507 0.75 4.5 0.75H19.4916C20.3422 0.75 21.159 1.08354 21.7665 1.67902L28.775 8.54856C29.3986 9.15982 29.75 9.99631 29.75 10.8695Z" fill="white" stroke="black" stroke-width="1.5"/>
<path d="M20.875 14.0917C20.1109 13.3201 19.2009 12.7083 18.198 12.292C17.195 11.8756 16.1193 11.6631 15.0334 11.6667C10.4834 11.6667 6.77504 15.375 6.77504 19.925C6.77504 21.3833 7.15837 22.8 7.87504 24.05L6.70837 28.3333L11.0834 27.1833C12.2917 27.8417 13.65 28.1917 15.0334 28.1917C19.5834 28.1917 23.2917 24.4833 23.2917 19.9333C23.2917 17.725 22.4334 15.65 20.875 14.0917ZM15.0334 26.7917C13.8 26.7917 12.5917 26.4583 11.5334 25.8333L11.2834 25.6833L8.68337 26.3667L9.37504 23.8333L9.20837 23.575C8.523 22.4809 8.15914 21.2161 8.15837 19.925C8.15837 16.1417 11.2417 13.0583 15.025 13.0583C16.8584 13.0583 18.5834 13.775 19.875 15.075C20.5147 15.7116 21.0216 16.4688 21.3664 17.3028C21.7111 18.1368 21.8869 19.0309 21.8834 19.9333C21.9 23.7167 18.8167 26.7917 15.0334 26.7917ZM18.8 21.6583C18.5917 21.5583 17.575 21.0583 17.3917 20.9833C17.2 20.9167 17.0667 20.8833 16.925 21.0833C16.7834 21.2917 16.3917 21.7583 16.275 21.8917C16.1584 22.0333 16.0334 22.05 15.825 21.9417C15.6167 21.8417 14.95 21.6167 14.1667 20.9167C13.55 20.3667 13.1417 19.6917 13.0167 19.4833C12.9 19.275 13 19.1667 13.1084 19.0583C13.2 18.9667 13.3167 18.8167 13.4167 18.7C13.5167 18.5833 13.5584 18.4917 13.625 18.3583C13.6917 18.2167 13.6584 18.1 13.6084 18C13.5584 17.9 13.1417 16.8833 12.975 16.4667C12.8084 16.0667 12.6334 16.1167 12.5084 16.1083H12.1084C11.9667 16.1083 11.75 16.1583 11.5584 16.3667C11.375 16.575 10.8417 17.075 10.8417 18.0917C10.8417 19.1083 11.5834 20.0917 11.6834 20.225C11.7834 20.3667 13.1417 22.45 15.2084 23.3417C15.7 23.5583 16.0834 23.6833 16.3834 23.775C16.875 23.9333 17.325 23.9083 17.6834 23.8583C18.0834 23.8 18.9084 23.3583 19.075 22.875C19.25 22.3917 19.25 21.9833 19.1917 21.8917C19.1334 21.8 19.0084 21.7583 18.8 21.6583Z" fill="black"/>
<path d="M20.8616 1.81066L28.3009 9.25H20.8616V1.81066Z" stroke="black" stroke-width="1.5"/>
</svg>
