<svg width="24" height="24" viewBox="0 0 24 24" fill="none" xmlns="http://www.w3.org/2000/svg">
<path fill-rule="evenodd" clip-rule="evenodd" d="M6.00002 5C5.7348 5 5.48045 5.10536 5.29291 5.29289C5.10537 5.48043 5.00002 5.73478 5.00002 6V13H19V6C19 5.73478 18.8947 5.48043 18.7071 5.29289C18.5196 5.10536 18.2652 5 18 5H6.00002ZM19.382 15H4.61805L3.34155 17.553C3.26535 17.7055 3.2294 17.8749 3.23711 18.0452C3.24482 18.2155 3.29594 18.381 3.38562 18.526C3.47529 18.671 3.60055 18.7907 3.74948 18.8736C3.89841 18.9566 4.06608 19.0001 4.23655 19H19.764C19.764 19 19.764 19 19.764 19C19.9344 19 20.102 18.9564 20.2509 18.8734C20.3997 18.7905 20.5249 18.6708 20.6145 18.5258C20.7042 18.3808 20.7552 18.2154 20.7629 18.0451C20.7706 17.8749 20.7347 17.7056 20.6586 17.5532C20.6586 17.5531 20.6586 17.5533 20.6586 17.5532L19.382 15ZM3.00002 13.7639V6C3.00002 5.20435 3.31609 4.44129 3.8787 3.87868C4.44131 3.31607 5.20437 3 6.00002 3H18C18.7957 3 19.5587 3.31607 20.1213 3.87868C20.6839 4.44129 21 5.20435 21 6V13.7639L22.4474 16.6588C22.676 17.1162 22.784 17.6246 22.7609 18.1354C22.7378 18.6461 22.5846 19.1425 22.3157 19.5775C22.0469 20.0124 21.6713 20.3713 21.2248 20.6203C20.7782 20.8693 20.2754 21 19.7641 21H4.23748C4.23733 21 4.23764 21 4.23748 21C3.72622 21.0002 3.22292 20.8696 2.77626 20.6209C2.32947 20.372 1.95371 20.013 1.68469 19.5781C1.41566 19.1431 1.2623 18.6466 1.23916 18.1357C1.21602 17.6248 1.32387 17.1165 1.55248 16.659L3.00002 13.7639Z" fill="black"/>
</svg>
