<svg width="12" height="11" viewBox="0 0 12 11" fill="none" xmlns="http://www.w3.org/2000/svg">
<path fill-rule="evenodd" clip-rule="evenodd" d="M11.2851 2.3701C11.5805 3.00317 11.6431 3.71568 11.4762 4.46695C11.3564 5.00608 10.8222 5.34601 10.2831 5.22621C9.74394 5.1064 9.40401 4.57222 9.52381 4.03309C9.60686 3.65936 9.5601 3.40311 9.47272 3.21587C9.38074 3.01876 9.20476 2.81643 8.90468 2.62749C8.28096 2.23477 7.27362 2 6.12499 2C4.98915 2 3.86394 2.23017 3.06055 2.6189C2.22052 3.02536 2 3.45113 2 3.74996C2 3.96531 2.05818 4.08342 2.13335 4.17359C2.22515 4.28372 2.39684 4.41315 2.70499 4.53852C3.34773 4.80003 4.26597 4.92462 5.35241 5.03647C5.47552 5.04914 5.60131 5.06168 5.72894 5.07439C6.64386 5.16553 7.65355 5.26612 8.44971 5.49639C8.91058 5.62968 9.40823 5.83404 9.80252 6.18775C10.2342 6.57501 10.5 7.10625 10.5 7.75C10.5 8.83951 9.92674 9.63389 9.1505 10.1233C8.41661 10.586 7.49669 10.7895 6.62241 10.842C5.73416 10.8953 4.79985 10.7985 3.97182 10.5804C3.16831 10.3687 2.34748 10.0118 1.79289 9.4572C1.40237 9.06668 1.40237 8.43351 1.79289 8.04299C2.18342 7.65246 2.81658 7.65246 3.20711 8.04299C3.40252 8.2384 3.83169 8.47522 4.4813 8.64635C5.1064 8.81102 5.82834 8.88606 6.50259 8.84559C7.19081 8.80429 7.73964 8.64846 8.08388 8.43144C8.38576 8.24112 8.5 8.03549 8.5 7.75V7.74938C8.5 7.70625 8.5 7.7061 8.46701 7.6765C8.39646 7.61321 8.23005 7.51483 7.89404 7.41765C7.2875 7.24222 6.48271 7.16098 5.53143 7.06496C5.40599 7.0523 5.27801 7.03938 5.1476 7.02596C4.10904 6.91904 2.90228 6.77799 1.95126 6.39106C1.46254 6.19221 0.970172 5.90172 0.59713 5.45423C0.207451 4.98679 1.90736e-06 4.40959 0 3.74996C-4.17231e-06 2.29882 1.09197 1.3496 2.18944 0.818574C3.32355 0.269818 4.76084 -3.81466e-06 6.125 0C7.47637 3.81474e-06 8.90654 0.26524 9.97031 0.935027C10.514 1.27734 10.9943 1.74689 11.2851 2.3701Z" fill="black"/>
</svg>
