<svg width="227" height="54" viewBox="0 0 227 54" fill="none" xmlns="http://www.w3.org/2000/svg">
<path fill-rule="evenodd" clip-rule="evenodd" d="M49 0.838618C43.554 2.50562 36.159 6.95662 33.16 10.3726C27.846 16.4236 29.331 19.4496 39 22.2756C44.514 23.8876 47.852 25.5006 46.971 26.1276C46.712 26.3126 41.948 27.9216 36.384 29.7036C18.667 35.3786 0 45.6816 0 49.7856C0 53.3306 2.519 54.2236 10.773 53.6056C21.074 52.8336 28.846 50.6916 38.5 45.9636C48.405 41.1126 52.168 37.3816 52.932 31.6566L53.5 27.4016L60.288 26.4896C68.455 25.3916 69.802 26.1626 68.124 30.9746C62.863 46.0666 75.877 48.0306 100.179 35.8116C104.456 33.6616 108.392 31.9016 108.926 31.9016C109.541 31.9016 109.522 32.9736 108.875 34.8306C107.309 39.3226 108.102 43.3446 110.626 43.7046C112.145 43.9216 114.072 42.4986 117.376 38.7216C119.919 35.8146 122 33.0906 122 32.6686C122 32.2466 122.45 31.9016 123 31.9016C123.55 31.9016 124 32.9566 124 34.2466C124 37.2126 126.917 39.9016 130.135 39.9016C136.502 39.9016 153.557 31.7296 154.768 28.0986C155.392 26.2266 152.496 26.6956 150.619 28.7706C148.664 30.9306 136.802 36.5976 132.455 37.4476C130.615 37.8076 128.758 37.4766 127.534 36.5696C125.701 35.2106 125.657 34.7636 126.891 29.9476C127.619 27.1076 127.89 24.4726 127.492 24.0926C127.094 23.7126 124.683 25.8246 122.134 28.7856C119.585 31.7466 115.778 36.0216 113.674 38.2856L109.847 42.4016L110.514 38.4016C110.881 36.2016 112.041 32.5136 113.091 30.2066C114.141 27.8996 115 25.5366 115 24.9566C115 23.1356 113.294 23.8046 111.689 26.2536C109.933 28.9336 88.001 39.2206 80.422 40.9186C68.713 43.5426 66.67 39.5406 72.695 25.7816C75.15 20.1756 75.17 20.1596 80.328 19.5406C83.173 19.1986 87.188 18.9146 89.25 18.9106C91.313 18.9056 93 18.4156 93 17.8226C93 17.1176 90.402 16.8576 85.498 17.0726C81.371 17.2536 77.996 17.2596 77.998 17.0856C77.999 16.9126 78.451 15.9266 79.003 14.8966C80.735 11.6596 78.263 11.6476 76.351 14.8836C74.764 17.5716 74.046 17.9016 69.784 17.9016C67.153 17.9016 65 18.3516 65 18.9016C65 19.4516 66.608 19.9016 68.573 19.9016C71.437 19.9016 72.08 20.2486 71.812 21.6516C71.532 23.1126 69.904 23.5136 61.945 24.0826C56.703 24.4576 51.983 24.8876 51.457 25.0386C50.93 25.1896 48.925 24.4706 47 23.4406C45.075 22.4106 41.025 20.8306 38 19.9296C31.2 17.9046 30.506 15.7316 35.211 11.2046C43.463 3.26462 60.88 -1.18038 59.246 5.07062C58.852 6.57462 59.094 7.03662 60.098 6.70262C61.978 6.07662 62.45 3.14862 60.96 1.35362C59.67 -0.201381 53.294 -0.475382 49 0.838618ZM199 10.1166C186.501 16.2626 176.581 34.0346 181.477 41.5076C183.128 44.0266 183.534 44.1326 189.866 43.6786C199.819 42.9666 227 31.0846 227 27.4456C227 26.5856 222.948 28.1946 215.75 31.9106C198.645 40.7416 187.023 43.7826 183.571 40.3306C181.308 38.0666 181.619 35.2016 184.869 28.4016C188.416 20.9826 195.617 13.5956 201.49 11.3526C210.825 7.78762 211.883 13.1486 203.5 21.5316C200.475 24.5566 198 27.2276 198 27.4666C198 30.8166 210.435 19.0016 211.539 14.6036C213.171 8.09962 207.343 6.01362 199 10.1166ZM36.338 32.3456C19.062 38.2066 0.908 48.3246 2.64 51.1276C3.567 52.6286 15.968 51.3686 25 48.8546C39.952 44.6936 49.865 38.2066 50.291 32.3056C50.585 28.2226 48.473 28.2286 36.338 32.3456ZM156 33.9016C156 34.4946 159.667 34.9016 165 34.9016C170.333 34.9016 174 34.4946 174 33.9016C174 33.3086 170.333 32.9016 165 32.9016C159.667 32.9016 156 33.3086 156 33.9016Z" fill="black"/>
</svg>
